<svg xmlns="http://www.w3.org/2000/svg" viewBox="0 0 48 48">
  <symbol id="icon-family" viewBox="0 0 48 48">
    <circle cx="16" cy="18" r="6" fill="none" stroke="currentColor" stroke-width="1.6" />
    <circle cx="32" cy="18" r="6" fill="none" stroke="currentColor" stroke-width="1.6" />
    <circle cx="24" cy="30" r="4" fill="none" stroke="currentColor" stroke-width="1.6" />
    <path
      d="M8 40c2.5-6 9-10 16-10s13.5 4 16 10"
      fill="none"
      stroke="currentColor"
      stroke-linecap="round"
      stroke-linejoin="round"
      stroke-width="1.6"
    />
  </symbol>
  <symbol id="icon-succession" viewBox="0 0 48 48">
    <rect
      x="10"
      y="18"
      width="28"
      height="18"
      rx="2"
      fill="none"
      stroke="currentColor"
      stroke-linejoin="round"
      stroke-width="1.6"
    />
    <path
      d="M14 18v-6h20v6"
      fill="none"
      stroke="currentColor"
      stroke-linecap="round"
      stroke-linejoin="round"
      stroke-width="1.6"
    />
    <path
      d="M18 26h12"
      fill="none"
      stroke="currentColor"
      stroke-linecap="round"
      stroke-linejoin="round"
      stroke-width="1.6"
    />
  </symbol>
  <symbol id="icon-insolvency" viewBox="0 0 48 48">
    <circle cx="24" cy="24" r="16" fill="none" stroke="currentColor" stroke-width="1.6" />
    <path
      d="M14 30l8-8 6 6 6-6"
      fill="none"
      stroke="currentColor"
      stroke-linecap="round"
      stroke-linejoin="round"
      stroke-width="1.6"
    />
  </symbol>
  <symbol id="icon-contracts" viewBox="0 0 48 48">
    <rect
      x="14"
      y="8"
      width="20"
      height="28"
      rx="2"
      fill="none"
      stroke="currentColor"
      stroke-linejoin="round"
      stroke-width="1.6"
    />
    <path
      d="M18 16h12"
      fill="none"
      stroke="currentColor"
      stroke-linecap="round"
      stroke-linejoin="round"
      stroke-width="1.6"
    />
    <path
      d="M18 22h8"
      fill="none"
      stroke="currentColor"
      stroke-linecap="round"
      stroke-linejoin="round"
      stroke-width="1.6"
    />
    <path
      d="M18 30l4 4 8-8"
      fill="none"
      stroke="currentColor"
      stroke-linecap="round"
      stroke-linejoin="round"
      stroke-width="1.6"
    />
  </symbol>
  <symbol id="icon-real-estate" viewBox="0 0 48 48">
    <path
      d="M8 22l16-12 16 12"
      fill="none"
      stroke="currentColor"
      stroke-linecap="round"
      stroke-linejoin="round"
      stroke-width="1.6"
    />
    <path
      d="M14 20v18h20V20"
      fill="none"
      stroke="currentColor"
      stroke-linecap="round"
      stroke-linejoin="round"
      stroke-width="1.6"
    />
    <path
      d="M20 38v-8h8v8"
      fill="none"
      stroke="currentColor"
      stroke-linecap="round"
      stroke-linejoin="round"
      stroke-width="1.6"
    />
  </symbol>
  <symbol id="icon-litigation" viewBox="0 0 48 48">
    <path
      d="M24 8l12 4v12c0 10-6 16-12 18-6-2-12-8-12-18V12l12-4z"
      fill="none"
      stroke="currentColor"
      stroke-linejoin="round"
      stroke-width="1.6"
    />
    <path
      d="M24 18v12"
      fill="none"
      stroke="currentColor"
      stroke-linecap="round"
      stroke-linejoin="round"
      stroke-width="1.6"
    />
    <path
      d="M18 24h12"
      fill="none"
      stroke="currentColor"
      stroke-linecap="round"
      stroke-linejoin="round"
      stroke-width="1.6"
    />
  </symbol>
</svg>
